<svg xmlns="http://www.w3.org/2000/svg" viewBox="0 0 800 800" width="800" height="800">
  <defs>
    <linearGradient id="g55a" x1="0%" y1="0%" x2="100%" y2="100%">
      <stop offset="0%" stop-color="#0f172a"/>
      <stop offset="100%" stop-color="#1e293b"/>
    </linearGradient>
    <linearGradient id="g55b" x1="0%" y1="0%" x2="100%" y2="0%">
      <stop offset="0%" stop-color="#f472b6"/>
      <stop offset="50%" stop-color="#a78bfa"/>
      <stop offset="100%" stop-color="#38bdf8"/>
    </linearGradient>
    <filter id="sh55"><feDropShadow dx="2" dy="3" stdDeviation="5" flood-color="#000" flood-opacity="0.2"/></filter>
  </defs>
  <rect width="800" height="800" fill="url(#g55a)"/>
  <!-- Website redesign showcase -->
  <text x="400" y="50" text-anchor="middle" font-family="Arial, sans-serif" font-size="10" fill="#a78bfa" letter-spacing="8">WEBSITE REDESIGN — CASE STUDY</text>
  <!-- Browser mockup - main -->
  <g transform="translate(80,80)" filter="url(#sh55)">
    <rect width="640" height="420" rx="12" fill="#1e293b" stroke="#334155" stroke-width="1"/>
    <!-- Browser chrome -->
    <rect width="640" height="32" rx="12" fill="#334155"/>
    <circle cx="20" cy="16" r="5" fill="#ef4444" opacity="0.6"/>
    <circle cx="36" cy="16" r="5" fill="#eab308" opacity="0.6"/>
    <circle cx="52" cy="16" r="5" fill="#22c55e" opacity="0.6"/>
    <rect x="120" y="8" width="400" height="16" rx="8" fill="#1e293b"/>
    <text x="320" y="20" text-anchor="middle" font-family="Arial, sans-serif" font-size="8" fill="#64748b">www.auroradesign.co</text>
    <!-- Website content -->
    <rect x="0" y="32" width="640" height="388" fill="#0f172a"/>
    <!-- Nav -->
    <rect x="20" y="45" width="600" height="30" fill="transparent"/>
    <circle cx="40" cy="60" r="10" fill="url(#g55b)" opacity="0.2"/>
    <text x="40" y="64" text-anchor="middle" font-family="Georgia, serif" font-size="10" fill="white" opacity="0.6">A</text>
    <rect x="380" y="55" width="35" height="5" rx="2.5" fill="#475569"/><rect x="430" y="55" width="35" height="5" rx="2.5" fill="#475569"/>
    <rect x="480" y="55" width="35" height="5" rx="2.5" fill="#475569"/>
    <rect x="540" y="50" width="70" height="22" rx="11" fill="url(#g55b)" opacity="0.3"/>
    <!-- Hero -->
    <rect x="20" y="90" width="280" height="8" rx="4" fill="white" opacity="0.6"/>
    <rect x="20" y="108" width="220" height="8" rx="4" fill="white" opacity="0.3"/>
    <rect x="20" y="130" width="300" height="5" rx="2.5" fill="#475569"/>
    <rect x="20" y="142" width="260" height="5" rx="2.5" fill="#475569"/>
    <rect x="20" y="165" width="100" height="30" rx="15" fill="url(#g55b)" opacity="0.4"/>
    <!-- Hero image area -->
    <rect x="370" y="85" width="250" height="130" rx="12" fill="url(#g55b)" opacity="0.08" stroke="url(#g55b)" stroke-width="0.5" stroke-opacity="0.15"/>
    <!-- Abstract shapes inside hero -->
    <circle cx="470" cy="140" r="30" fill="none" stroke="#f472b6" stroke-width="1" opacity="0.15"/>
    <rect x="440" y="120" width="60" height="40" rx="6" fill="none" stroke="#a78bfa" stroke-width="1" opacity="0.12" transform="rotate(15,470,140)"/>
    <!-- Feature cards -->
    <rect x="20" y="235" width="190" height="120" rx="10" fill="#1e293b" stroke="#334155" stroke-width="0.5"/>
    <circle cx="50" cy="265" r="14" fill="url(#g55b)" opacity="0.1"/>
    <rect x="30" y="290" width="100" height="5" rx="2.5" fill="#e2e8f0" opacity="0.4"/>
    <rect x="30" y="302" width="160" height="4" rx="2" fill="#475569"/>
    <rect x="30" y="313" width="140" height="4" rx="2" fill="#475569"/>
    <rect x="30" y="330" width="60" height="4" rx="2" fill="#a78bfa" opacity="0.4"/>
    <rect x="225" y="235" width="190" height="120" rx="10" fill="#1e293b" stroke="#334155" stroke-width="0.5"/>
    <circle cx="255" cy="265" r="14" fill="url(#g55b)" opacity="0.1"/>
    <rect x="235" y="290" width="100" height="5" rx="2.5" fill="#e2e8f0" opacity="0.4"/>
    <rect x="235" y="302" width="160" height="4" rx="2" fill="#475569"/>
    <rect x="235" y="313" width="140" height="4" rx="2" fill="#475569"/>
    <rect x="235" y="330" width="60" height="4" rx="2" fill="#f472b6" opacity="0.4"/>
    <rect x="430" y="235" width="190" height="120" rx="10" fill="#1e293b" stroke="#334155" stroke-width="0.5"/>
    <circle cx="460" cy="265" r="14" fill="url(#g55b)" opacity="0.1"/>
    <rect x="440" y="290" width="100" height="5" rx="2.5" fill="#e2e8f0" opacity="0.4"/>
    <rect x="440" y="302" width="160" height="4" rx="2" fill="#475569"/>
    <rect x="440" y="313" width="140" height="4" rx="2" fill="#475569"/>
    <rect x="440" y="330" width="60" height="4" rx="2" fill="#38bdf8" opacity="0.4"/>
    <!-- Footer hint -->
    <rect x="0" y="375" width="640" height="45" fill="#0c1220"/>
    <rect x="260" y="392" width="120" height="4" rx="2" fill="#334155"/>
  </g>
  <!-- Annotation callouts -->
  <g transform="translate(80,530)">
    <rect width="200" height="55" rx="10" fill="#1e293b" stroke="#334155" stroke-width="1"/>
    <circle cx="20" cy="27" r="8" fill="#f472b6" opacity="0.2"/>
    <text x="20" y="31" text-anchor="middle" font-family="Arial, sans-serif" font-size="8" fill="#f472b6">01</text>
    <text x="38" y="24" font-family="Arial, sans-serif" font-size="10" fill="white" font-weight="600">Glassmorphism UI</text>
    <text x="38" y="40" font-family="Arial, sans-serif" font-size="8" fill="#64748b">Frosted glass card effects</text>
  </g>
  <g transform="translate(300,530)">
    <rect width="200" height="55" rx="10" fill="#1e293b" stroke="#334155" stroke-width="1"/>
    <circle cx="20" cy="27" r="8" fill="#a78bfa" opacity="0.2"/>
    <text x="20" y="31" text-anchor="middle" font-family="Arial, sans-serif" font-size="8" fill="#a78bfa">02</text>
    <text x="38" y="24" font-family="Arial, sans-serif" font-size="10" fill="white" font-weight="600">Gradient System</text>
    <text x="38" y="40" font-family="Arial, sans-serif" font-size="8" fill="#64748b">Dynamic color transitions</text>
  </g>
  <g transform="translate(520,530)">
    <rect width="200" height="55" rx="10" fill="#1e293b" stroke="#334155" stroke-width="1"/>
    <circle cx="20" cy="27" r="8" fill="#38bdf8" opacity="0.2"/>
    <text x="20" y="31" text-anchor="middle" font-family="Arial, sans-serif" font-size="8" fill="#38bdf8">03</text>
    <text x="38" y="24" font-family="Arial, sans-serif" font-size="10" fill="white" font-weight="600">Micro Animations</text>
    <text x="38" y="40" font-family="Arial, sans-serif" font-size="8" fill="#64748b">Smooth scroll-triggered</text>
  </g>
  <!-- Results -->
  <rect x="80" y="610" width="640" height="70" rx="14" fill="white" opacity="0.03" stroke="white" stroke-width="0.5" stroke-opacity="0.05"/>
  <text x="200" y="645" text-anchor="middle" font-family="'Helvetica Neue', sans-serif" font-size="22" fill="url(#g55b)" font-weight="800">+250%</text>
  <text x="200" y="665" text-anchor="middle" font-family="Arial, sans-serif" font-size="8" fill="#64748b" letter-spacing="1">PAGE VIEWS</text>
  <text x="400" y="645" text-anchor="middle" font-family="'Helvetica Neue', sans-serif" font-size="22" fill="url(#g55b)" font-weight="800">3.2x</text>
  <text x="400" y="665" text-anchor="middle" font-family="Arial, sans-serif" font-size="8" fill="#64748b" letter-spacing="1">CONVERSION RATE</text>
  <text x="600" y="645" text-anchor="middle" font-family="'Helvetica Neue', sans-serif" font-size="22" fill="url(#g55b)" font-weight="800">92%</text>
  <text x="600" y="665" text-anchor="middle" font-family="Arial, sans-serif" font-size="8" fill="#64748b" letter-spacing="1">USER SATISFACTION</text>
  <!-- Bottom label -->
  <text x="400" y="740" text-anchor="middle" font-family="Arial, sans-serif" font-size="10" fill="#64748b" letter-spacing="4">WEB DESIGN CASE STUDY</text>
</svg>
