<svg xmlns="http://www.w3.org/2000/svg" viewBox="0 0 800 800" width="800" height="800">
  <defs>
    <linearGradient id="bg21" x1="0%" y1="0%" x2="100%" y2="100%">
      <stop offset="0%" stop-color="#e5e7eb"/>
      <stop offset="100%" stop-color="#d1d5db"/>
    </linearGradient>
  </defs>
  <rect width="800" height="800" fill="url(#bg21)"/>
  <!-- Paper shadow -->
  <rect x="104" y="64" width="600" height="680" rx="4" fill="#9ca3af" opacity="0.2"/>
  <!-- Paper -->
  <rect x="100" y="60" width="600" height="680" rx="4" fill="white"/>
  <!-- Top accent bar -->
  <rect x="100" y="60" width="600" height="4" rx="2" fill="#1a1a1a"/>
  <!-- Logo -->
  <circle cx="160" cy="120" r="22" fill="none" stroke="#1a1a1a" stroke-width="1.5"/>
  <text x="160" y="128" text-anchor="middle" font-family="Georgia, serif" font-size="18" fill="#1a1a1a" font-weight="400">V</text>
  <!-- Company name -->
  <text x="200" y="115" font-family="Georgia, serif" font-size="18" fill="#1a1a1a" letter-spacing="4" font-weight="600">VERTEX</text>
  <text x="200" y="133" font-family="Arial, sans-serif" font-size="8" fill="#9ca3af" letter-spacing="4">DESIGN STUDIO</text>
  <!-- Address -->
  <text x="540" y="108" text-anchor="end" font-family="Arial, sans-serif" font-size="8" fill="#9ca3af">123 Creative Ave, Suite 400</text>
  <text x="540" y="120" text-anchor="end" font-family="Arial, sans-serif" font-size="8" fill="#9ca3af">New York, NY 10001</text>
  <text x="540" y="132" text-anchor="end" font-family="Arial, sans-serif" font-size="8" fill="#9ca3af">hello@vertexstudio.com</text>
  <!-- Divider -->
  <rect x="140" y="160" width="520" height="0.5" fill="#e5e5e5"/>
  <!-- Letter content lines -->
  <rect x="140" y="200" width="200" height="6" rx="3" fill="#d1d5db" opacity="0.5"/>
  <rect x="140" y="240" width="420" height="5" rx="2.5" fill="#e5e7eb"/>
  <rect x="140" y="260" width="380" height="5" rx="2.5" fill="#e5e7eb"/>
  <rect x="140" y="280" width="440" height="5" rx="2.5" fill="#e5e7eb"/>
  <rect x="140" y="300" width="350" height="5" rx="2.5" fill="#e5e7eb"/>
  <rect x="140" y="320" width="410" height="5" rx="2.5" fill="#e5e7eb"/>
  <rect x="140" y="360" width="430" height="5" rx="2.5" fill="#e5e7eb"/>
  <rect x="140" y="380" width="390" height="5" rx="2.5" fill="#e5e7eb"/>
  <rect x="140" y="400" width="440" height="5" rx="2.5" fill="#e5e7eb"/>
  <rect x="140" y="420" width="300" height="5" rx="2.5" fill="#e5e7eb"/>
  <rect x="140" y="460" width="420" height="5" rx="2.5" fill="#e5e7eb"/>
  <rect x="140" y="480" width="380" height="5" rx="2.5" fill="#e5e7eb"/>
  <rect x="140" y="500" width="200" height="5" rx="2.5" fill="#e5e7eb"/>
  <!-- Signature area -->
  <rect x="140" y="560" width="120" height="5" rx="2.5" fill="#d1d5db" opacity="0.6"/>
  <rect x="140" y="580" width="100" height="4" rx="2" fill="#d1d5db" opacity="0.4"/>
  <rect x="140" y="600" width="80" height="4" rx="2" fill="#d1d5db" opacity="0.3"/>
  <!-- Footer -->
  <rect x="140" y="700" width="420" height="0.5" fill="#e5e5e5"/>
  <text x="400" y="720" text-anchor="middle" font-family="Arial, sans-serif" font-size="7" fill="#9ca3af" letter-spacing="2">WWW.VERTEXSTUDIO.COM | +1 (555) 123-4567 | @VERTEXSTUDIO</text>
  <!-- Label -->
  <text x="400" y="785" text-anchor="middle" font-family="Arial, sans-serif" font-size="10" fill="#9ca3af" letter-spacing="4">LETTERHEAD DESIGN</text>
</svg>
