<svg xmlns="http://www.w3.org/2000/svg" viewBox="0 0 800 500">
  <defs>
    <linearGradient id="bg2" x1="0%" y1="0%" x2="100%" y2="100%">
      <stop offset="0%" style="stop-color:#1a1a2e"/>
      <stop offset="50%" style="stop-color:#16213e"/>
      <stop offset="100%" style="stop-color:#0f3460"/>
    </linearGradient>
    <linearGradient id="gold" x1="0%" y1="0%" x2="100%" y2="100%">
      <stop offset="0%" style="stop-color:#D4A853"/>
      <stop offset="100%" style="stop-color:#E07A5F"/>
    </linearGradient>
  </defs>
  <rect width="800" height="500" fill="url(#bg2)"/>
  <!-- African pattern decorations -->
  <g opacity="0.08">
    <circle cx="100" cy="80" r="40" fill="none" stroke="#D4A853" stroke-width="2"/>
    <circle cx="100" cy="80" r="25" fill="none" stroke="#D4A853" stroke-width="1.5"/>
    <circle cx="700" cy="420" r="50" fill="none" stroke="#E07A5F" stroke-width="2"/>
    <circle cx="700" cy="420" r="30" fill="none" stroke="#E07A5F" stroke-width="1.5"/>
    <path d="M50,250 L80,220 L110,250 L80,280 Z" fill="none" stroke="#D4A853" stroke-width="1.5"/>
    <path d="M720,100 L750,70 L780,100 L750,130 Z" fill="none" stroke="#E07A5F" stroke-width="1.5"/>
  </g>
  <!-- Browser mockup -->
  <rect x="140" y="80" width="520" height="320" rx="10" fill="#0d1117" stroke="#30363d" stroke-width="2"/>
  <rect x="140" y="80" width="520" height="35" rx="10" fill="#161b22"/>
  <rect x="140" y="105" width="520" height="10" fill="#161b22"/>
  <circle cx="162" cy="97" r="6" fill="#ff5f56"/>
  <circle cx="182" cy="97" r="6" fill="#ffbd2e"/>
  <circle cx="202" cy="97" r="6" fill="#27c93f"/>
  <rect x="280" y="90" width="240" height="16" rx="8" fill="#0d1117" stroke="#30363d" stroke-width="1"/>
  <!-- Portfolio content mockup -->
  <rect x="160" y="130" width="480" height="60" rx="4" fill="#1a1a2e"/>
  <rect x="180" y="145" width="120" height="10" rx="3" fill="#D4A853" opacity="0.7"/>
  <rect x="180" y="162" width="200" height="8" rx="3" fill="#6b7280" opacity="0.5"/>
  <rect x="470" y="142" width="60" height="24" rx="4" fill="url(#gold)" opacity="0.6"/>
  <rect x="540" y="142" width="60" height="24" rx="4" fill="#30363d" opacity="0.6"/>
  <!-- Profile section mockup -->
  <circle cx="220" cy="240" r="30" fill="#D4A853" opacity="0.2" stroke="#D4A853" stroke-width="1.5"/>
  <text x="220" y="247" font-family="Arial, sans-serif" font-size="24" fill="#D4A853" text-anchor="middle" opacity="0.8">S</text>
  <rect x="270" y="220" width="140" height="10" rx="3" fill="#e5e7eb" opacity="0.3"/>
  <rect x="270" y="238" width="200" height="8" rx="3" fill="#6b7280" opacity="0.3"/>
  <rect x="270" y="254" width="160" height="8" rx="3" fill="#6b7280" opacity="0.2"/>
  <!-- Skill bars mockup -->
  <rect x="160" y="290" width="220" height="8" rx="4" fill="#1f2937"/>
  <rect x="160" y="290" width="180" height="8" rx="4" fill="url(#gold)" opacity="0.6"/>
  <rect x="160" y="308" width="220" height="8" rx="4" fill="#1f2937"/>
  <rect x="160" y="308" width="150" height="8" rx="4" fill="url(#gold)" opacity="0.5"/>
  <rect x="160" y="326" width="220" height="8" rx="4" fill="#1f2937"/>
  <rect x="160" y="326" width="195" height="8" rx="4" fill="url(#gold)" opacity="0.4"/>
  <!-- Project cards mockup -->
  <rect x="420" y="285" width="100" height="70" rx="6" fill="#1f2937" stroke="#30363d" stroke-width="1"/>
  <rect x="530" y="285" width="100" height="70" rx="6" fill="#1f2937" stroke="#30363d" stroke-width="1"/>
  <rect x="432" y="296" width="76" height="35" rx="3" fill="#D4A853" opacity="0.15"/>
  <rect x="542" y="296" width="76" height="35" rx="3" fill="#E07A5F" opacity="0.15"/>
  <rect x="432" y="340" width="50" height="6" rx="2" fill="#6b7280" opacity="0.4"/>
  <rect x="542" y="340" width="50" height="6" rx="2" fill="#6b7280" opacity="0.4"/>
  <!-- Footer area -->
  <rect x="160" y="370" width="480" height="20" rx="3" fill="#0d1117" opacity="0.5"/>
  <!-- Title -->
  <text x="400" y="440" font-family="Arial, sans-serif" font-size="28" font-weight="bold" fill="#ffffff" text-anchor="middle" opacity="0.9">Personal Portfolio</text>
  <text x="400" y="468" font-family="Arial, sans-serif" font-size="14" fill="#D4A853" text-anchor="middle" opacity="0.7">React • Tailwind CSS • African Theme</text>
</svg>
